<svg width="320" height="320" viewBox="0 0 320 320" fill="none" xmlns="http://www.w3.org/2000/svg">
<circle opacity="0.3" cx="160" cy="160" r="160" fill="url(#paint0_radial)"/>
<path d="M160 41.9795V277.84" stroke="#898989" stroke-width="0.0762001"/>
<path d="M160 277.84V41.9795" stroke="#898989" stroke-width="0.0762001"/>
<path d="M280 159.955C280 159.865 280 159.865 280 159.775C280 159.685 280 159.595 280 159.595V159.505C280 159.505 280 159.505 280 159.415C280 159.325 280 159.235 279.91 159.235C279.91 159.145 279.91 159.145 279.82 159.055C279.82 158.965 279.731 158.965 279.731 158.875C279.731 158.785 279.641 158.785 279.641 158.695C279.641 158.605 279.551 158.605 279.551 158.515C279.551 158.425 279.461 158.425 279.461 158.335C279.461 158.245 279.371 158.245 279.281 158.245L279.192 158.155C279.102 158.155 279.102 158.065 279.012 158.065C278.922 158.065 278.922 157.975 278.832 157.975L267.695 152.216L271.198 145.287C271.287 145.107 271.377 144.927 271.377 144.747V144.657C271.377 144.657 271.377 144.657 271.377 144.567C271.377 144.387 271.377 144.297 271.377 144.117V144.027C271.377 143.847 271.287 143.667 271.287 143.487C271.198 143.307 271.108 143.127 271.018 143.037C270.928 142.857 270.749 142.767 270.659 142.677C270.659 142.677 270.569 142.677 270.569 142.587C270.479 142.497 270.299 142.407 270.21 142.317L258.623 136.828L258.713 131.069C258.713 130.259 258.263 129.539 257.635 129.089L251.617 125.579V120.45C251.617 119.73 251.257 119.1 250.719 118.65L246.677 115.501L250.449 107.042C250.719 106.412 250.719 105.782 250.449 105.242C250.18 104.612 249.731 104.252 249.102 103.982L244.072 102.362L249.461 91.4736C249.82 90.7537 249.731 89.9438 249.371 89.2238C248.922 88.5939 248.204 88.144 247.395 88.234L241.557 88.4139L245.509 77.5253V77.4353C245.509 77.3453 245.509 77.3453 245.599 77.2553C245.599 77.1654 245.599 77.1654 245.599 77.0754C245.599 76.9854 245.599 76.9854 245.599 76.8954C245.599 76.8054 245.599 76.8054 245.599 76.7154C245.599 76.6254 245.599 76.6254 245.599 76.5354C245.599 76.4454 245.599 76.4454 245.599 76.3555C245.599 76.2655 245.599 76.2655 245.509 76.1755C245.509 76.0855 245.509 76.0855 245.419 75.9955C245.419 75.9055 245.329 75.9055 245.329 75.8155C245.329 75.7255 245.24 75.7255 245.24 75.6355V75.5456C245.24 75.5456 245.24 75.4556 245.15 75.4556C245.15 75.3656 245.06 75.3656 245.06 75.2756C245.06 75.1856 244.97 75.1856 244.97 75.0956L244.88 75.0056C244.79 74.9156 244.79 74.9156 244.701 74.9156C244.701 74.9156 244.611 74.9156 244.611 74.8256C244.611 74.8256 244.611 74.8256 244.521 74.8256C244.431 74.8256 244.431 74.7357 244.341 74.7357C244.251 74.7357 244.251 74.6457 244.162 74.6457C244.072 74.6457 244.072 74.6457 243.982 74.5557C243.892 74.5557 243.892 74.5557 243.802 74.5557C243.713 74.5557 243.713 74.5557 243.623 74.5557C243.533 74.5557 243.533 74.5557 243.443 74.5557C243.353 74.5557 243.353 74.5557 243.263 74.5557C243.174 74.5557 243.174 74.5557 243.084 74.5557C242.994 74.5557 242.994 74.5557 242.904 74.5557C242.814 74.5557 242.814 74.5557 242.725 74.6457H242.635L229.88 79.2351L228.353 71.3161C228.353 71.1361 228.263 70.9561 228.174 70.7762C228.084 70.6862 228.084 70.5962 227.994 70.5062C227.904 70.4162 227.904 70.4162 227.814 70.3262C227.814 70.3262 227.814 70.3262 227.725 70.2362C227.545 70.0562 227.455 69.9663 227.275 69.8763H227.186C227.006 69.7863 226.826 69.6963 226.647 69.6963C226.467 69.6963 226.287 69.6063 226.018 69.6063C226.018 69.6063 226.018 69.6063 225.928 69.6063C225.748 69.6063 225.569 69.6963 225.389 69.6963L213.263 74.0157L209.222 69.8763C208.683 69.2463 207.784 69.0664 207.066 69.2463L200.329 70.9561L196.737 67.3566C196.287 66.9066 195.569 66.6367 194.85 66.7267L189.731 67.3566L186.407 58.6277C186.138 57.9978 185.689 57.5478 185.15 57.3678C184.521 57.0979 183.892 57.1879 183.353 57.4578L178.683 59.8875L174.82 48.369C174.551 47.649 173.922 47.0191 173.204 46.9291C172.395 46.7492 171.587 47.0191 171.048 47.5591L167.006 51.8785L162.156 41.3498V41.2598C162.156 41.1699 162.066 41.1699 162.066 41.0799C162.066 40.9899 161.976 40.9899 161.976 40.8999C161.976 40.8099 161.886 40.8099 161.886 40.7199C161.886 40.6299 161.796 40.6299 161.796 40.5399C161.796 40.5399 161.707 40.4499 161.617 40.4499C161.527 40.4499 161.527 40.36 161.437 40.36C161.347 40.36 161.347 40.27 161.257 40.27C161.168 40.27 161.168 40.18 161.078 40.18C160.988 40.18 160.988 40.09 160.898 40.09C160.808 40.09 160.808 40 160.719 40C160.719 40 160.719 40 160.629 40H160.539C160.449 40 160.449 40 160.359 40C160.269 40 160.18 40 160.18 40C160.09 40 160.09 40 160 40C159.91 40 159.82 40 159.731 40H159.641C159.551 40 159.461 40.09 159.371 40.09H159.281C159.192 40.09 159.102 40.18 159.012 40.18C159.012 40.18 158.922 40.18 158.922 40.27C158.832 40.36 158.743 40.36 158.743 40.4499C158.743 40.4499 158.653 40.4499 158.653 40.5399C158.563 40.6299 158.563 40.6299 158.473 40.7199L158.383 40.8099C158.293 40.8999 158.293 40.8999 158.293 40.9899L158.204 41.0799L152.275 52.5084L145.539 48.7289C145.359 48.6389 145.18 48.5489 145 48.5489H144.91H144.82C144.641 48.5489 144.551 48.5489 144.371 48.5489H144.281C144.102 48.5489 143.922 48.5489 143.743 48.6389C143.563 48.7289 143.383 48.8189 143.204 48.9089C143.024 48.9989 142.934 49.1789 142.754 49.2688C142.754 49.2688 142.754 49.3588 142.665 49.3588C142.575 49.4488 142.485 49.6288 142.395 49.8088L136.826 61.3273L131.078 61.2373C130.269 61.2373 129.551 61.6873 129.102 62.3172L125.599 68.3465H120.479C119.76 68.3465 119.132 68.7064 118.683 69.2463L115.539 73.2958L107.006 69.4263C106.377 69.1564 105.748 69.1564 105.21 69.4263C104.581 69.6963 104.222 70.1462 103.952 70.7762L102.335 75.8155L91.4671 70.4162C90.7485 70.0562 89.9401 70.1462 89.2216 70.5062C88.5928 70.9561 88.1437 71.676 88.2335 72.4859L88.4132 78.3352L77.5449 74.3757H77.4551C77.3653 74.3757 77.3653 74.3757 77.2754 74.2857C77.1856 74.2857 77.1856 74.2857 77.0958 74.2857C77.006 74.2857 77.006 74.2857 76.9162 74.2857C76.8263 74.2857 76.8263 74.2857 76.7365 74.2857C76.6467 74.2857 76.6467 74.2857 76.5569 74.2857C76.4671 74.2857 76.4671 74.2857 76.3772 74.2857C76.2874 74.2857 76.2874 74.2857 76.1976 74.3757C76.1078 74.3757 76.1078 74.3757 76.018 74.4657C75.9281 74.4657 75.9281 74.5557 75.8383 74.5557C75.7485 74.5557 75.7485 74.6457 75.6587 74.6457H75.5689C75.5689 74.6457 75.479 74.6457 75.479 74.7357C75.3892 74.7357 75.3892 74.8256 75.2994 74.8256C75.2096 74.8256 75.2096 74.9156 75.1198 74.9156C75.1198 74.9156 75.0299 75.0056 75.0299 75.0956C75.0299 75.1856 74.9401 75.1856 74.9401 75.2756C74.9401 75.2756 74.9401 75.2756 74.8503 75.3656V75.4556C74.8503 75.5456 74.7605 75.5456 74.7605 75.6355C74.7605 75.7255 74.6707 75.7255 74.6707 75.8155C74.6707 75.9055 74.6707 75.9055 74.5808 75.9955C74.5808 76.0855 74.5808 76.0855 74.5808 76.1755C74.5808 76.2655 74.5808 76.2655 74.5808 76.3555C74.5808 76.4454 74.5808 76.4454 74.5808 76.5354C74.5808 76.6254 74.5808 76.6254 74.5808 76.7154C74.5808 76.8054 74.5808 76.8054 74.5808 76.8954C74.5808 76.9854 74.5808 76.9854 74.5808 77.0754C74.5808 77.1654 74.5808 77.1654 74.6707 77.2553V77.3453L79.6108 90.0337L71.3473 91.5636C71.1677 91.5636 70.988 91.6535 70.8084 91.7435C70.7186 91.8335 70.6287 91.8335 70.5389 91.9235C70.4491 92.0135 70.4491 92.0135 70.3593 92.1035C70.3593 92.1035 70.3593 92.1035 70.2695 92.1935C70.0898 92.2835 70 92.4634 69.9102 92.6434C69.9102 92.6434 69.9102 92.7334 69.8204 92.7334C69.7305 92.9134 69.6407 93.0934 69.6407 93.2733C69.6407 93.2733 69.6407 93.2733 69.6407 93.3633C69.6407 93.5433 69.5509 93.7233 69.5509 93.9033V93.9933C69.5509 94.1732 69.6407 94.3532 69.6407 94.5332L73.9521 106.682L69.8204 110.731C69.1916 111.271 69.012 112.171 69.1916 112.891L70.8982 119.64L67.3054 123.24C66.8563 123.69 66.5868 124.409 66.6766 125.129L67.3054 130.259L58.5928 133.588C57.9641 133.858 57.515 134.308 57.3353 134.848C57.0659 135.478 57.1557 136.108 57.4251 136.648L59.8503 141.327L48.3533 145.197C47.6347 145.467 47.006 146.097 46.9162 146.817C46.7365 147.627 47.006 148.436 47.5449 148.976L51.8563 153.026L41.3473 157.885H41.2575C41.1677 157.885 41.1677 157.975 41.0778 157.975C40.988 157.975 40.988 158.065 40.8982 158.065C40.8084 158.065 40.8084 158.155 40.7186 158.155C40.6287 158.155 40.6287 158.245 40.5389 158.245C40.5389 158.335 40.4491 158.335 40.4491 158.425C40.4491 158.515 40.3593 158.515 40.3593 158.605C40.3593 158.695 40.2695 158.695 40.2695 158.785C40.2695 158.875 40.1796 158.875 40.1796 158.965C40.1796 159.055 40.0898 159.055 40.0898 159.145C40.0898 159.235 40.0898 159.235 40 159.325V159.415V159.505C40 159.595 40 159.595 40 159.685C40 159.775 40 159.775 40 159.865C40 159.955 40 159.955 40 160.045C40 160.135 40 160.225 40 160.225V160.315C40 160.315 40 160.315 40 160.405C40 160.495 40 160.585 40.0898 160.585C40.0898 160.675 40.0898 160.675 40.1796 160.765C40.1796 160.855 40.2695 160.855 40.2695 160.945C40.2695 161.035 40.3593 161.035 40.3593 161.125C40.3593 161.215 40.4491 161.215 40.4491 161.305L40.5389 161.395C40.6287 161.485 40.6287 161.485 40.7186 161.575L40.8084 161.665C40.8982 161.665 40.8982 161.755 40.988 161.755C41.0778 161.755 41.0778 161.845 41.1677 161.845C41.1677 161.845 41.1677 161.845 41.2575 161.845L53.2934 167.694L48.8922 174.353C48.5329 174.893 48.4431 175.613 48.6228 176.153C48.8024 176.693 49.2515 177.323 49.7904 177.593L61.3772 183.082L61.2874 188.841C61.2874 189.651 61.7365 190.371 62.3653 190.821L68.3832 194.331V199.46C68.3832 200.18 68.7425 200.81 69.2814 201.26L73.3233 204.409L69.5509 212.868C69.2814 213.498 69.2814 214.128 69.5509 214.668C69.8204 215.298 70.2695 215.658 70.8982 215.928L75.9281 217.548L70.5389 228.436C70.1796 229.156 70.2695 229.966 70.6287 230.686C71.0778 231.316 71.7964 231.766 72.6048 231.676L78.4431 231.496L74.491 242.385V242.475C74.491 242.565 74.491 242.565 74.4012 242.655C74.4012 242.745 74.4012 242.745 74.4012 242.835C74.4012 242.925 74.4012 242.925 74.4012 243.015C74.4012 243.105 74.4012 243.105 74.4012 243.195C74.4012 243.285 74.4012 243.285 74.4012 243.375C74.4012 243.465 74.4012 243.465 74.4012 243.555C74.4012 243.645 74.4012 243.645 74.491 243.735C74.491 243.825 74.491 243.825 74.5808 243.915C74.5808 244.004 74.6707 244.005 74.6707 244.094C74.6707 244.184 74.7605 244.184 74.7605 244.274V244.364C74.7605 244.364 74.7605 244.364 74.7605 244.454C74.8503 244.544 74.9401 244.724 75.0299 244.814C75.1198 244.904 75.2096 244.994 75.3892 245.084C75.3892 245.084 75.3892 245.084 75.479 245.084C75.5689 245.174 75.7485 245.174 75.8383 245.264C75.9281 245.264 75.9281 245.354 76.018 245.354C76.1976 245.444 76.3772 245.444 76.5569 245.444C76.6467 245.444 76.8263 245.444 77.006 245.444H77.0958C77.1856 245.444 77.2754 245.444 77.2754 245.354L90.0299 240.855L91.5569 248.684C91.6467 249.314 92.0958 249.854 92.6347 250.214C92.994 250.394 93.3533 250.484 93.7126 250.484C93.982 250.484 94.2515 250.484 94.4311 250.394L106.557 246.074L110.599 250.214C111.138 250.844 112.036 251.024 112.754 250.844L119.491 249.134L123.084 252.733C123.533 253.183 124.251 253.453 124.97 253.363L130.09 252.733L133.413 261.462C133.683 262.092 134.132 262.542 134.671 262.722C135.299 262.992 135.928 262.902 136.467 262.632L141.138 260.202L145 271.721C145.269 272.441 145.898 273.071 146.617 273.161C147.425 273.341 148.234 273.071 148.772 272.531L152.814 268.211L157.665 278.74C157.665 278.74 157.665 278.74 157.665 278.83C157.754 279.01 157.844 279.19 157.934 279.28L158.024 279.37C158.114 279.46 158.293 279.64 158.473 279.73C158.653 279.82 158.743 279.91 158.922 279.91H159.012H159.102C159.281 279.91 159.461 280 159.551 280C159.731 280 159.91 280 160 279.91H160.09H160.18C160.359 279.82 160.539 279.82 160.629 279.73C160.808 279.64 160.898 279.55 161.078 279.37L161.168 279.28C161.257 279.1 161.347 279.01 161.437 278.83L167.275 266.862L173.922 271.091C173.922 271.091 173.922 271.091 174.012 271.091C174.192 271.181 174.371 271.271 174.551 271.361H174.641C174.731 271.361 174.82 271.361 174.91 271.451C175 271.451 175.09 271.451 175.269 271.451C175.449 271.451 175.719 271.451 175.898 271.361C176.078 271.271 176.257 271.181 176.437 271.091C176.527 271.091 176.527 271.001 176.617 270.911C176.707 270.821 176.796 270.731 176.886 270.641C176.976 270.551 177.066 270.461 177.066 270.371C177.156 270.281 177.156 270.191 177.245 270.191L182.725 258.583L188.473 258.673C189.281 258.673 190 258.223 190.449 257.593L193.952 251.564H199.072C199.79 251.564 200.419 251.204 200.868 250.664L204.012 246.614L212.455 250.394C213.084 250.664 213.713 250.664 214.251 250.394C214.88 250.124 215.24 249.674 215.509 249.044L217.126 244.005L227.994 249.404C228.713 249.764 229.521 249.674 230.24 249.314C230.868 248.864 231.317 248.144 231.228 247.334L231.048 241.485L241.916 245.444C242.006 245.444 242.096 245.534 242.186 245.534H242.275C242.455 245.534 242.545 245.534 242.725 245.534C242.904 245.534 243.084 245.534 243.263 245.444H243.353C243.533 245.354 243.713 245.354 243.892 245.174C243.892 245.174 243.892 245.174 243.982 245.174C243.982 245.174 244.072 245.174 244.072 245.084C244.162 245.084 244.162 244.994 244.251 244.994C244.341 244.994 244.341 244.904 244.431 244.904L244.521 244.814C244.611 244.724 244.611 244.724 244.611 244.634C244.611 244.634 244.611 244.544 244.701 244.544V244.454C244.701 244.364 244.79 244.364 244.79 244.274C244.79 244.184 244.88 244.184 244.88 244.094C244.88 244.005 244.88 244.004 244.97 243.915C244.97 243.825 244.97 243.825 244.97 243.735C244.97 243.645 244.97 243.645 244.97 243.555C244.97 243.465 244.97 243.465 244.97 243.375C244.97 243.285 244.97 243.285 244.97 243.195C244.97 243.105 244.97 243.105 244.97 243.015C244.97 242.925 244.97 242.925 244.97 242.835C244.97 242.745 244.97 242.745 244.88 242.655V242.565L240.389 230.146L248.293 228.256C248.922 228.076 249.461 227.717 249.731 227.177C250 226.637 250.09 225.917 249.91 225.377L245.599 213.228L249.731 209.179C250.359 208.639 250.539 207.739 250.359 207.019L248.653 200.27L252.245 196.67C252.695 196.22 252.964 195.501 252.874 194.781L252.245 189.651L260.958 186.322C261.587 186.052 262.036 185.602 262.216 185.062C262.395 184.522 262.395 183.802 262.126 183.262L259.701 178.583L271.198 174.713C271.916 174.443 272.545 173.813 272.635 173.093C272.814 172.283 272.545 171.474 272.006 170.934L267.695 166.884L278.204 162.025C278.204 162.025 278.204 162.025 278.293 162.025C278.383 162.025 278.383 161.935 278.473 161.935C278.563 161.935 278.563 161.845 278.653 161.845C278.743 161.845 278.742 161.755 278.832 161.755C278.922 161.755 278.922 161.665 278.922 161.665C278.922 161.575 279.012 161.575 279.012 161.485C279.012 161.395 279.102 161.395 279.102 161.305C279.102 161.215 279.192 161.215 279.192 161.125C279.192 161.035 279.281 161.035 279.281 160.945C279.281 160.855 279.371 160.855 279.371 160.765C279.371 160.675 279.461 160.675 279.461 160.585C279.461 160.585 279.461 160.585 279.461 160.495V160.405C279.461 160.315 279.461 160.315 279.461 160.225C280 160.045 280 159.955 280 159.955Z" fill="#B2B3B3"/>
<path d="M160 41.9756L152.994 55.4739L160 159.861V41.9756ZM138.174 63.5729L144.282 50.6145L160 159.861L138.174 63.5729ZM130.988 63.3929L126.856 70.502L160.09 159.861L130.988 63.3929ZM120.389 70.502L116.168 75.9013L160 159.861L120.389 70.502ZM106.108 71.4019L103.773 78.961L160.09 159.861L106.108 71.4019ZM90.4792 72.3918L90.7486 81.5706L160 159.861L90.4792 72.3918ZM76.8265 76.5313L82.7546 91.7394L160 159.951L76.8265 76.5313ZM76.6468 107.217L71.7965 93.7191L160 159.861L76.6468 107.217ZM71.4372 112.257L73.5031 120.266L160.09 159.951L71.4372 112.257ZM68.9223 124.765L69.7307 131.604L160 159.861L68.9223 124.765ZM59.4911 135.564L63.084 142.583L160 159.951L59.4911 135.564ZM49.1618 147.262L55.8085 153.562L160 159.861L49.1618 147.262ZM42.3354 159.861L56.7067 166.79L160 159.861H42.3354ZM63.8923 181.728L50.9582 175.609L160 159.861L63.8923 181.728ZM63.7127 189.017L70.8085 193.157L160 159.861L63.7127 189.017ZM70.8085 199.636L76.1977 203.865L160 159.951L70.8085 199.636ZM71.7067 213.944L79.2516 216.284L160 159.861L71.7067 213.944ZM72.6947 229.512L81.8564 229.242L160 159.861L72.6947 229.512ZM76.8265 243.28L92.0061 237.971L160.09 159.951L76.8265 243.28ZM107.455 243.46L93.9822 248.32L160 159.951L107.455 243.46ZM112.485 248.68L120.479 246.61L160.09 159.861L112.485 248.68ZM124.97 251.199L131.797 250.39L160 159.951L124.97 251.199ZM135.749 260.648L142.755 257.049L160.09 159.951L135.749 260.648ZM147.425 270.997L153.713 264.338L160 159.951L147.425 270.997ZM160 277.836L166.916 263.618L160 159.951V277.836ZM181.826 256.239L175.719 269.197L160 159.951L181.826 256.239ZM189.102 256.329L193.234 249.22L160 159.861L189.102 256.329ZM199.701 249.22L203.922 243.82L160.09 159.861L199.701 249.22ZM213.982 248.32L216.317 240.761L160 159.861L213.982 248.32ZM229.521 247.42L229.252 238.241L160 159.951L229.521 247.42ZM243.264 243.28L237.964 228.522L160.09 159.951L243.264 243.28ZM243.443 212.504L248.294 226.003L160.09 159.861L243.443 212.504ZM248.653 207.555L246.587 199.546L160 159.861L248.653 207.555ZM251.168 195.046L250.359 188.207L160.09 159.951L251.168 195.046ZM260.599 184.248L257.006 177.229L160.09 159.861L260.599 184.248ZM270.928 172.549L264.282 166.25L160.09 159.951L270.928 172.549ZM277.755 159.861L264.641 153.112L160.09 159.861H277.755ZM256.198 137.994L269.132 144.113L160.09 159.861L256.198 137.994ZM256.288 130.794L249.192 126.655L160 159.951L256.288 130.794ZM249.192 120.176L243.802 115.946L160 159.861L249.192 120.176ZM248.294 105.868L240.749 103.528L160 159.951L248.294 105.868ZM247.395 90.2096L238.234 90.4795L160.09 159.861L247.395 90.2096ZM243.264 76.5313L228.084 82.0206L160.09 159.861L243.264 76.5313ZM212.545 76.3513L226.018 71.4919L160 159.861L212.545 76.3513ZM207.605 71.1319L199.611 73.2017L160 159.951L207.605 71.1319ZM195.12 68.6123L188.294 69.4222L160.09 159.861L195.12 68.6123ZM184.341 59.1634L177.335 62.763L160 159.861L184.341 59.1634ZM172.665 48.8147L166.377 55.4739L160.09 159.861L172.665 48.8147Z" fill="#FEFEFE"/>
<path d="M144.282 50.6145L152.994 55.4739L160 159.861L144.282 50.6145ZM130.988 63.3929L138.264 63.5729L160.09 159.861L130.988 63.3929ZM120.389 70.502H126.767L160 159.861L120.389 70.502ZM106.108 71.4019L116.168 75.9013L160 159.861L106.108 71.4019ZM90.4792 72.3918L103.683 78.961L160 159.861L90.4792 72.3918ZM76.8265 76.5313L90.8384 81.6606L160.09 159.951L76.8265 76.5313ZM71.7965 93.7191L82.7546 91.6494L160 159.861L71.7965 93.7191ZM71.4372 112.257L76.6468 107.217L160.09 159.861L71.4372 112.257ZM68.9223 124.765L73.4133 120.266L160 159.951L68.9223 124.765ZM59.4911 135.564L69.8205 131.604L160.09 159.861L59.4911 135.564ZM49.1618 147.262L63.084 142.493L160 159.861L49.1618 147.262ZM42.3354 159.861L55.8085 153.562L160 159.861H42.3354ZM50.9582 175.609L56.7067 166.79L160 159.861L50.9582 175.609ZM63.7127 189.017L63.8923 181.728L160 159.861L63.7127 189.017ZM70.8085 199.636V193.247L160 159.951L70.8085 199.636ZM71.7067 213.944L76.1977 203.865L160 159.951L71.7067 213.944ZM72.6947 229.512L79.2516 216.284L160 159.861L72.6947 229.512ZM76.8265 243.28L81.9462 229.242L160.09 159.861L76.8265 243.28ZM93.9822 248.32L91.9163 237.971L160 159.951L93.9822 248.32ZM112.485 248.68L107.455 243.46L160 159.861L112.485 248.68ZM124.97 251.199L120.479 246.7L160.09 159.951L124.97 251.199ZM135.749 260.648L131.797 250.3L160 159.861L135.749 260.648ZM147.425 270.997L142.665 257.049L160 159.951L147.425 270.997ZM160 277.836L153.713 264.338L160 159.951V277.836ZM175.719 269.197L166.916 263.618L160 159.951L175.719 269.197ZM189.102 256.329L181.826 256.149L160 159.861L189.102 256.329ZM199.701 249.22H193.323L160.09 159.861L199.701 249.22ZM213.982 248.32L203.922 243.82L160.09 159.861L213.982 248.32ZM229.521 247.42L216.317 240.851L160 159.951L229.521 247.42ZM243.264 243.28L229.252 238.151L160 159.861L243.264 243.28ZM248.294 226.003L237.964 228.432L160.09 159.861L248.294 226.003ZM248.653 207.555L243.443 212.594L160 159.951L248.653 207.555ZM251.168 195.046L246.677 199.546L160.09 159.861L251.168 195.046ZM260.599 184.248L250.27 188.207L160 159.951L260.599 184.248ZM270.928 172.549L257.006 177.319L160.09 159.951L270.928 172.549ZM277.755 159.861L264.282 166.16L160.09 159.861H277.755ZM269.132 144.113L264.641 153.112L160.09 159.861L269.132 144.113ZM256.288 130.794L256.108 138.084L160 159.951L256.288 130.794ZM249.192 120.176V126.565L160 159.861L249.192 120.176ZM248.294 105.868L243.802 115.946L160 159.861L248.294 105.868ZM247.395 90.2096L240.838 103.438L160.09 159.861L247.395 90.2096ZM243.264 76.5313L238.144 90.5695L160 159.951L243.264 76.5313ZM226.018 71.4919L227.994 82.0206L160 159.861L226.018 71.4919ZM207.605 71.1319L212.635 76.3513L160.09 159.951L207.605 71.1319ZM195.12 68.6123L199.611 73.1117L160 159.861L195.12 68.6123ZM184.341 59.1634L188.294 69.5121L160.09 159.951L184.341 59.1634ZM172.665 48.8147L177.425 62.763L160.09 159.861L172.665 48.8147ZM160 41.9756L166.288 55.4739L160 159.861V41.9756Z" fill="#B2B3B3"/>
<path d="M125.329 207.289L160.09 222.677L194.76 207.289C201.228 204.409 205.09 198.11 205.09 191.181V97.1426H160.09H114.91V191.091C114.91 198.11 119.042 204.319 125.329 207.289Z" fill="#FFED00"/>
<path d="M126.228 205.219C120.749 202.7 117.246 197.12 117.246 191.181V99.3926H202.934V191.091C202.934 197.21 199.521 202.61 193.952 205.129L160.18 220.157L126.228 205.219Z" fill="#008DD2"/>
<path d="M174.639 138.807L172.034 161.304C172.483 161.214 172.932 161.214 173.292 161.214C176.076 161.214 178.501 163.554 178.501 166.434C178.501 169.403 176.076 171.743 173.292 171.743C172.573 171.743 171.854 171.563 171.226 171.293C166.016 162.744 163.232 152.755 163.232 142.676L164.04 116.4C164.04 112.44 162.603 108.841 160.088 105.871C157.573 108.841 156.226 112.53 156.226 116.4L157.034 142.676C157.034 152.755 154.25 162.564 148.95 171.293C148.411 171.563 147.693 171.743 146.974 171.743C144.01 171.743 141.675 169.403 141.675 166.434C141.675 163.644 144.01 161.214 146.974 161.214C147.333 161.214 147.693 161.214 148.052 161.304L145.537 138.807C144.28 128.278 137.992 118.829 128.561 113.7V190.011H146.076C147.333 196.94 151.106 203.239 156.585 207.558C157.034 207.828 157.573 208.278 158.022 208.548C158.92 209.268 159.549 210.078 160.088 211.068C160.627 210.078 161.345 209.268 162.244 208.548C162.603 208.098 163.052 207.828 163.501 207.558C169.07 203.059 172.753 196.85 174.01 190.011H191.705V113.7C182.274 118.829 175.986 128.098 174.639 138.807ZM133.771 124.679C137.453 128.908 139.609 134.128 140.328 139.527L142.304 156.895C139.519 158.155 137.543 160.674 136.645 163.824H133.771V124.679ZM145.717 184.881H133.86V169.043H136.735C137.992 173.633 142.034 176.872 146.795 176.872C145.986 179.392 145.717 182.092 145.717 184.881ZM157.483 201.079C154.519 198.02 152.453 194.15 151.735 190.011H157.483V201.079ZM150.926 184.881C150.926 182.631 151.196 180.382 151.914 178.222C155.148 178.672 157.483 181.462 157.483 184.881H150.926ZM159.819 177.232L153.98 173.003C156.944 167.963 158.741 163.734 160.088 158.605C161.525 163.824 163.322 168.233 166.106 173.183L159.819 177.232ZM162.783 201.079V190.011H168.351C167.723 194.24 165.747 198.02 162.783 201.079ZM162.783 184.881C162.783 181.462 165.118 178.672 168.351 178.222C168.89 180.292 169.25 182.542 169.25 184.881H162.783ZM177.783 156.895L179.848 139.347C180.567 133.858 182.813 128.728 186.316 124.589V163.734H183.351C182.723 160.674 180.567 158.335 177.783 156.895ZM186.316 184.881H174.549C174.549 182.182 174.1 179.572 173.381 176.872C178.142 176.872 182.184 173.633 183.351 169.043H186.316V184.881Z" fill="#FFED00"/>
<defs>
<radialGradient id="paint0_radial" cx="0" cy="0" r="1" gradientUnits="userSpaceOnUse" gradientTransform="translate(160 160) rotate(90) scale(160)">
<stop stop-color="white"/>
<stop offset="1" stop-color="white" stop-opacity="0"/>
</radialGradient>
</defs>
</svg>
